<?xml version="1.0" standalone="no"?>
<!DOCTYPE svg PUBLIC "-//W3C//DTD SVG 1.1//EN" "http://www.w3.org/Graphics/SVG/1.1/DTD/svg11.dtd" >
<svg xmlns="http://www.w3.org/2000/svg">
<metadata></metadata>
<defs>
<font id="pragmaticacregular" horiz-adv-x="1187" >
<font-face units-per-em="2048" ascent="1589" descent="-459" />
<missing-glyph horiz-adv-x="477" />
<glyph horiz-adv-x="2048" />
<glyph horiz-adv-x="2048" />
<glyph unicode="&#xd;" horiz-adv-x="2048" />
<glyph unicode=" "  horiz-adv-x="477" />
<glyph unicode="&#x09;" horiz-adv-x="477" />
<glyph unicode="&#xa0;" horiz-adv-x="477" />
<glyph unicode="!" horiz-adv-x="636" d="M217 0v223h203v-223h-203zM217 883v551h203v-551l-51 -471h-101z" />
<glyph unicode="&#x22;" horiz-adv-x="860" d="M102 1434h271l-82 -394h-107zM487 1434h271l-82 -394h-107z" />
<glyph unicode="#" horiz-adv-x="1435" d="M102 365l27 174h274l58 366h-275l27 174h274l54 342h139l-53 -342h293l53 342h139l-53 -342h274l-26 -174h-275l-57 -366h274l-26 -174h-275l-53 -345h-139l53 345h-293l-53 -345h-139l53 345h-275zM543 539h293l57 366h-293z" />
<glyph unicode="$" horiz-adv-x="1251" d="M109 426h182q3 -71 24 -126t50.5 -88t69 -55t75 -30.5t72.5 -9.5v545q-112 24 -193 58.5t-127.5 71.5t-73.5 85.5t-35 92.5t-8 101q0 94 30.5 166t76.5 113t107.5 66.5t115 34t107.5 7.5v133h108v-133q40 -1 81 -8t90 -22.5t90 -43.5t75.5 -67t53 -99t16.5 -133h-176 q-2 95 -66 166t-164 72v-506q85 -15 154 -39t115.5 -51.5t81 -63t53.5 -68t30.5 -71t15 -68t3.5 -63.5q0 -74 -18.5 -135.5t-47 -103t-70 -74t-81.5 -51.5t-86.5 -31t-81 -16.5t-68.5 -6.5v-165h-108v165q-228 9 -344 118t-129 333zM324 1077q0 -100 63 -158t195 -83v487 q-31 -1 -61 -6t-67.5 -21.5t-64.5 -42t-46 -71t-19 -105.5zM690 117q124 -3 197.5 79.5t73.5 196.5q0 66 -27 115t-71.5 76t-86 40.5t-86.5 18.5v-526z" />
<glyph unicode="%" horiz-adv-x="1865" d="M109 1040q0 96 24.5 171.5t61 119t84 72t87.5 38t78 9.5t78 -9.5t87.5 -38t84.5 -72t61.5 -119t24.5 -171.5q0 -49 -8 -99.5t-31.5 -107.5t-59.5 -100.5t-97.5 -72.5t-139.5 -29t-139.5 29t-97 72.5t-59 100.5t-31.5 107.5t-8 99.5zM240 1040q0 -34 4 -68t17 -78 t34 -76.5t59.5 -55.5t89.5 -23q62 0 106 32.5t64 84.5t27.5 96t7.5 88q0 68 -13.5 122t-34.5 87t-49.5 54.5t-54.5 29.5t-53 8q-34 0 -67 -14.5t-65 -46t-52 -94t-20 -146.5zM399 0l930 1434h146l-930 -1434h-146zM1085 393q0 96 24.5 171.5t61.5 119t84.5 72t87.5 38 t78 9.5t78 -9.5t87.5 -38t84.5 -72t61.5 -119t24.5 -171.5q0 -49 -8 -99.5t-31.5 -107.5t-59.5 -100.5t-97.5 -72.5t-139.5 -29t-139.5 29t-97.5 72.5t-59.5 100.5t-31.5 107.5t-8 99.5zM1217 393q0 -34 4 -68t17 -78t34 -76.5t59.5 -55.5t89.5 -23q62 0 106 32.5t64 84.5 t27.5 96t7.5 88q0 68 -13.5 122t-34.5 87t-49.5 54.5t-54.5 29.5t-53 8q-34 0 -67 -14.5t-65 -46t-52 -94t-20 -146.5z" />
<glyph unicode="&#x26;" horiz-adv-x="1398" d="M147 383q0 157 87.5 261.5t265.5 184.5q-142 164 -142 310q0 137 95.5 216t238.5 79q148 0 231 -85t83 -204q0 -65 -24.5 -123.5t-66 -102.5t-85.5 -76t-93 -55l314 -372q37 61 59 211h162q-17 -106 -42 -182.5t-77 -153.5l246 -291h-215l-142 168 q-67 -104 -188.5 -157.5t-255.5 -53.5q-118 0 -208 38t-141.5 101t-76.5 135.5t-25 151.5zM334 385q0 -38 10.5 -76t33 -74t55.5 -63.5t82 -44t108 -16.5q102 0 188.5 45t136.5 129l-354 428q-260 -106 -260 -328zM526 1143q0 -33 8 -63t29.5 -65t32 -49.5t43.5 -55.5 q2 -3 3.5 -4.5t3 -4t3.5 -4.5q84 29 138.5 96t54.5 156q0 61 -43 105t-109 44q-64 0 -114 -38.5t-50 -116.5z" />
<glyph unicode="'" horiz-adv-x="475" d="M102 1434h271l-82 -394h-107z" />
<glyph unicode="(" horiz-adv-x="747" d="M145 528q0 142 21.5 259.5t87.5 279t188 367.5h136q-250 -484 -250 -906q0 -216 69 -453.5t181 -451.5h-136q-122 206 -188 367t-87.5 278.5t-21.5 259.5z" />
<glyph unicode=")" horiz-adv-x="747" d="M170 -377q250 482 250 905q0 426 -250 906h135q95 -152 158 -289.5t91 -251.5t38 -195t10 -170t-10 -170.5t-38 -195.5t-91 -251t-158 -288h-135z" />
<glyph unicode="*" horiz-adv-x="952" d="M135 1190l33 96l258 -82v271h102v-271l256 82l33 -96l-254 -82l160 -221l-84 -62l-162 222l-164 -222l-82 62l160 221z" />
<glyph unicode="+" horiz-adv-x="1228" d="M102 664v127h449v448h127v-448h448v-127h-448v-449h-127v449h-449z" />
<glyph unicode="," horiz-adv-x="636" d="M217 0v223h203v-286q0 -48 -13.5 -87t-34.5 -64t-49.5 -44.5t-53.5 -29t-52 -15.5v113q42 4 72 41.5t30 85.5v63h-102z" />
<glyph unicode="-" horiz-adv-x="864" d="M162 461v174h540v-174h-540z" />
<glyph unicode="." horiz-adv-x="636" d="M217 0v223h203v-223h-203z" />
<glyph unicode="/" horiz-adv-x="860" d="M0 -379l731 1813h129l-731 -1813h-129z" />
<glyph unicode="0" d="M92 717q0 151 23 273t57.5 199.5t84.5 135t94 85.5t97.5 44.5t83.5 19.5t62 3t62 -3t83.5 -19.5t97.5 -44.5t94 -85.5t84.5 -135t57.5 -199.5t23 -273t-23 -273t-57.5 -199.5t-84.5 -135t-94 -85.5t-97.5 -44.5t-83.5 -19.5t-62 -3t-62 3t-83.5 19.5t-97.5 44.5t-94 85.5 t-84.5 135t-57.5 199.5t-23 273zM283 717q0 -128 16.5 -232t52 -188.5t97 -131t145.5 -46.5t145.5 46.5t97 131t52 188.5t16.5 232t-16.5 232t-52 188.5t-97 131t-145.5 46.5t-145.5 -46.5t-97 -131t-52 -188.5t-16.5 -232z" />
<glyph unicode="1" d="M266 1077v101h43q132 0 229.5 70.5t112.5 185.5h135v-1434h-192v1077h-328z" />
<glyph unicode="2" d="M117 0q-1 228 130 382q80 93 258 209q31 21 96 62h1q5 3 36.5 23t40.5 26t38 26.5t40 31t35.5 33t34.5 39t26.5 42t23.5 49.5t12.5 54.5t5.5 62.5q0 131 -78.5 203t-210.5 72q-136 0 -216.5 -78.5t-80.5 -206.5v-53h-188v43q0 32 4 66t17.5 80.5t34.5 88t59 83t87.5 71.5 t124 49t164.5 19q221 0 350.5 -115.5t129.5 -319.5q0 -80 -18.5 -143t-45 -109t-93.5 -102.5t-125 -96t-179 -116.5q-144 -91 -212 -162.5t-89 -150.5h757v-162h-970z" />
<glyph unicode="3" d="M82 436h184q1 -8 3 -23.5t3 -23.5q3 -20 6.5 -37t13.5 -47.5t22.5 -54t36 -51t52.5 -45.5t72.5 -30.5t95.5 -12.5q71 0 127 15.5t90 43t57 58t33.5 67.5t14.5 64t4 55q0 118 -71 188t-191 70h-148v155h58q21 0 37.5 0.5t51 5.5t61 14t59 27.5t54 43.5t36 65.5t14.5 91.5 q0 36 -7.5 69t-27.5 66.5t-51 58t-81.5 39.5t-115.5 15q-20 0 -37.5 -1.5t-47.5 -8.5t-54 -19t-51.5 -36.5t-45.5 -58t-30 -85.5t-12 -117h-178q-1 33 1.5 66t13 83t28.5 93t53.5 88t82.5 77t120.5 52.5t163.5 20.5q113 0 199.5 -31t133 -74.5t75.5 -101.5t37.5 -102 t8.5 -85q0 -116 -65 -201.5t-170 -115.5v-4q116 -16 196 -112t80 -251q0 -206 -137 -324t-356 -118q-87 0 -159 16.5t-122.5 44t-89.5 67.5t-62.5 81.5t-39 90.5t-22 91.5t-7.5 87.5z" />
<glyph unicode="4" d="M47 332v162l674 940h194v-940h226v-162h-226v-332h-192v332h-676zM231 494h492v688z" />
<glyph unicode="5" d="M94 367h189q4 -32 14 -63t32 -67.5t53 -63t82 -44.5t114 -18q26 0 49 2t58.5 10t64 21.5t60 40.5t52.5 63t35 92t14 125q0 91 -26.5 159t-73 106t-100 55.5t-115.5 17.5q-78 0 -162.5 -34t-118.5 -91h-180l101 756h774v-162h-633l-58 -424q125 108 324 108 q201 0 325 -131.5t124 -357.5q0 -110 -31 -201t-92 -161t-161 -109t-230 -39q-106 0 -190.5 27.5t-136 69.5t-87 99.5t-50.5 108.5t-20 105z" />
<glyph unicode="6" d="M90 698q0 124 15 228.5t38.5 179t59 134.5t70.5 98t80.5 66t80.5 41.5t78 21t66.5 9t52.5 1.5q24 0 47 -1.5t65 -9t77.5 -21t78.5 -40.5t75.5 -63.5t60 -94.5t40.5 -129h-172q-47 205 -274 205q-72 0 -129.5 -23t-94.5 -65t-62.5 -92t-38.5 -113t-18.5 -119t-4.5 -118h4 q114 151 350 151q202 0 331.5 -129t129.5 -352q0 -227 -131.5 -366.5t-360.5 -139.5q-124 0 -214.5 35.5t-160 118.5t-104.5 229.5t-35 357.5zM293 459q0 -68 19.5 -129.5t57.5 -111t100.5 -78.5t141.5 -29q76 0 135 29.5t94 80.5t52.5 112.5t17.5 131.5q0 140 -78.5 233 t-224.5 93q-148 0 -231.5 -91t-83.5 -241z" />
<glyph unicode="7" d="M70 1272v162h1046v-131q-137 -153 -228.5 -303.5t-168.5 -340.5q-66 -163 -101 -311.5t-57 -347.5h-205q45 343 172 643q69 163 172.5 329t227.5 300h-858z" />
<glyph unicode="8" d="M111 406q0 129 70.5 234t189.5 136q-96 34 -151.5 122t-55.5 194q0 49 11 98t41 102t76.5 93t124.5 66t177 26t177 -26t124.5 -66t76.5 -93t41 -102t11 -98q0 -106 -55.5 -194t-151.5 -122q119 -31 189.5 -136t70.5 -234q0 -94 -29.5 -174t-87 -142.5t-151.5 -97.5 t-215 -35t-215 35t-151.5 97.5t-87 142.5t-29.5 174zM295 416q0 -77 27 -137.5t71 -96t95.5 -53.5t105.5 -18t105.5 18t95.5 53.5t71 96t27 137.5q0 39 -8 75.5t-29 74.5t-53.5 66t-86.5 46t-122 18t-122 -18t-86.5 -46t-53.5 -66t-29 -74.5t-8 -75.5zM340 1085 q0 -106 62 -173.5t192 -67.5t192 67.5t62 173.5q0 27 -4.5 54t-21 61.5t-42.5 60.5t-74.5 44t-111.5 18t-111.5 -18t-74.5 -44t-42.5 -60.5t-21 -61.5t-4.5 -54z" />
<glyph unicode="9" d="M90 971q0 227 131.5 366.5t360.5 139.5q58 0 106.5 -6.5t102.5 -26.5t96.5 -53t83 -90t67 -133t42.5 -186.5t16 -246.5q0 -778 -541 -778q-25 0 -47.5 1.5t-64.5 9t-77.5 20.5t-78.5 40t-75.5 63.5t-60 94.5t-40.5 129h172q47 -204 274 -204q72 0 129.5 23t94.5 65 t62.5 92t38.5 113t18.5 119t4.5 118h-4q-60 -79 -152 -115.5t-198 -36.5q-202 0 -331.5 129.5t-129.5 352.5zM274 969q0 -140 79 -233t225 -93q148 0 231.5 91t83.5 241q0 68 -19.5 129.5t-57.5 111t-101 78.5t-142 29q-76 0 -135 -29.5t-94 -80.5t-52.5 -112.5 t-17.5 -131.5z" />
<glyph unicode=":" horiz-adv-x="636" d="M217 0v223h203v-223h-203zM217 817v223h203v-223h-203z" />
<glyph unicode=";" horiz-adv-x="636" d="M217 0v223h203v-286q0 -48 -13.5 -87t-34.5 -64t-49.5 -44.5t-53.5 -29t-52 -15.5v113q42 4 72 41.5t30 85.5v63h-102zM217 817v223h203v-223h-203z" />
<glyph unicode="&#x3c;" horiz-adv-x="1370" d="M123 651v99l1014 583l61 -110l-919 -523l919 -522l-61 -110z" />
<glyph unicode="=" horiz-adv-x="1228" d="M102 438v127h1024v-127h-1024zM102 848v127h1024v-127h-1024z" />
<glyph unicode="&#x3e;" horiz-adv-x="1370" d="M172 178l920 522l-920 523l61 110l1014 -583v-99l-1014 -583z" />
<glyph unicode="?" horiz-adv-x="1122" d="M109 1001q-3 75 8 139.5t42.5 126.5t82 105t134.5 69.5t193 26.5q203 0 324 -97.5t121 -272.5q0 -114 -48.5 -192.5t-162.5 -174.5q-45 -38 -65.5 -57t-51.5 -55.5t-44 -75t-13 -84.5v-43h-150q-17 194 92 311q25 26 67.5 63t72.5 65.5t61 65t47.5 79t16.5 90.5 q0 29 -7.5 58t-27 61t-48.5 56t-77.5 40t-108.5 16q-33 0 -61.5 -3.5t-73 -22t-74.5 -50t-51.5 -94.5t-19.5 -150h-178zM451 0v223h202v-223h-202z" />
<glyph unicode="@" horiz-adv-x="1767" d="M123 719q0 220 102 394.5t275 269t383 94.5q151 0 277.5 -38.5t215 -105.5t150 -158.5t90.5 -196t29 -218.5q0 -82 -25 -162.5t-70.5 -147.5t-118 -108t-159.5 -41q-135 0 -182 98q-58 -110 -250 -110q-164 0 -259.5 109.5t-95.5 293.5q0 173 91.5 288.5t248.5 115.5 q171 0 242 -113h6v84h156v-516q0 -72 20.5 -95.5t57.5 -23.5q54 0 95.5 30.5t65.5 79.5t36 105t12 113q0 142 -49.5 257.5t-136 190t-201 114.5t-246.5 40q-142 0 -262.5 -53t-200 -142.5t-124 -205.5t-44.5 -242q0 -131 37 -240t99 -182.5t144.5 -125t170.5 -74.5t180 -23 q177 0 321 94l60 -109q-92 -55 -182 -78.5t-199 -23.5q-159 0 -296.5 50.5t-241 144.5t-163 240t-59.5 327zM657 690q0 -48 9 -90.5t30 -85t63 -67.5t101 -25t101 26t62 69.5t28 85t8 87.5q0 125 -49.5 198t-147.5 73q-104 0 -154.5 -77t-50.5 -194z" />
<glyph unicode="A" horiz-adv-x="1273" d="M-8 0l543 1434h204l543 -1434h-207l-135 371h-606l-135 -371h-207zM387 532h500l-250 707z" />
<glyph unicode="B" horiz-adv-x="1411" d="M174 0v1434h629q100 0 177.5 -22t124 -57.5t76 -85t40 -97.5t10.5 -103q0 -114 -69 -201t-171 -106v-6q40 -7 77.5 -20t79.5 -41t72.5 -65.5t51 -97.5t20.5 -133q0 -399 -512 -399h-606zM367 162h399q48 0 86.5 4t86.5 19t80 41t54.5 74.5t22.5 115.5q0 132 -85.5 190 t-244.5 58h-399v-502zM367 825h387q148 0 214 62.5t66 161.5q0 29 -5 55t-22 58.5t-45.5 55t-80.5 38.5t-121 16h-393v-447z" />
<glyph unicode="C" horiz-adv-x="1458" d="M92 692q0 156 32 282.5t80 206.5t117 139.5t129 88t132 45.5t110 20t76 3q132 0 235 -30.5t165.5 -77.5t105.5 -114t61.5 -129.5t26.5 -134.5h-193q-4 37 -14 73.5t-37.5 84t-69 82.5t-114.5 59.5t-166 24.5q-104 0 -186 -34.5t-134.5 -91.5t-87 -137.5t-49 -167 t-14.5 -184.5q0 -167 57.5 -298t168.5 -207t259 -76q170 0 283.5 100.5t122.5 255.5h192q-6 -48 -17.5 -94t-33.5 -99t-53 -98t-79 -88t-106.5 -73t-140 -48t-176.5 -18q-319 0 -500.5 195.5t-181.5 539.5z" />
<glyph unicode="D" horiz-adv-x="1472" d="M174 0v1434h526q34 0 62.5 -1.5t82 -8.5t98 -19.5t102 -38t102.5 -60.5t90.5 -90t76 -123t49.5 -163.5t19 -208.5q0 -146 -30.5 -262t-75 -190t-115.5 -127.5t-132 -80t-145.5 -41.5t-134.5 -17.5t-120 -2.5h-455zM367 162h268q276 0 409.5 135t133.5 420 q0 126 -27.5 224t-73.5 159.5t-110.5 101t-132 55t-144.5 15.5h-323v-1110z" />
<glyph unicode="E" horiz-adv-x="1253" d="M174 0v1434h1022v-162h-829v-451h751v-162h-751v-497h852v-162h-1045z" />
<glyph unicode="F" horiz-adv-x="1163" d="M174 0v1434h963v-162h-770v-467h673v-162h-673v-643h-193z" />
<glyph unicode="G" horiz-adv-x="1515" d="M92 731q0 359 188 552.5t513 193.5q111 0 204.5 -26t158.5 -70t113 -104.5t73.5 -127t33.5 -139.5h-192q-3 42 -16 82t-42.5 81.5t-72.5 72t-111.5 50t-153.5 19.5q-93 0 -169.5 -25t-126.5 -64.5t-87.5 -95t-57.5 -108t-32 -113.5t-15 -102t-3 -82q0 -31 2.5 -67 t14.5 -98t31 -118t56.5 -117t87 -105t126.5 -72.5t171 -28.5q73 0 135 17t106 45t78 67t55.5 80.5t35.5 88.5t19.5 87.5t5.5 81.5h-410v162h586v-748h-150v231h-4q-62 -130 -186 -202t-291 -72q-107 0 -202 24.5t-182.5 82.5t-151 145.5t-101 221t-37.5 300.5z" />
<glyph unicode="H" horiz-adv-x="1454" d="M174 0v1434h193v-598h720v598h193v-1434h-193v674h-720v-674h-193z" />
<glyph unicode="I" horiz-adv-x="540" d="M174 0v1434h193v-1434h-193z" />
<glyph unicode="J" horiz-adv-x="1064" d="M47 401v74h193q1 -90 12.5 -152.5t38.5 -110t75.5 -70.5t120.5 -23q60 0 103.5 18t69 47.5t40.5 77t20 97.5t5 118v957h193v-938q0 -284 -100.5 -411.5t-332.5 -127.5q-37 0 -70 3t-79.5 13.5t-84 28.5t-77 51.5t-66.5 79t-44 114.5t-17 154z" />
<glyph unicode="K" horiz-adv-x="1366" d="M174 0v1434h193v-711l708 711h260l-598 -590l637 -844h-256l-522 715l-229 -223v-492h-193z" />
<glyph unicode="L" horiz-adv-x="1083" d="M174 0v1434h193v-1272h729v-162h-922z" />
<glyph unicode="M" horiz-adv-x="1822" d="M174 0v1434h289l448 -1180l449 1180h289v-1434h-193v1149l4 55h-6l-465 -1204h-155l-467 1204h-5l5 -55v-1149h-193z" />
<glyph unicode="N" horiz-adv-x="1515" d="M174 0v1434h213l762 -1137v1137h192v-1434h-211l-763 1137v-1137h-193z" />
<glyph unicode="O" horiz-adv-x="1552" d="M92 717q0 185 50.5 330t142 238.5t216 142.5t275.5 49q101 0 194 -22.5t184 -77.5t157.5 -139.5t107.5 -218t41 -302.5q0 -121 -21 -223.5t-54.5 -175t-82.5 -131.5t-97.5 -96t-107.5 -64t-104 -40t-95.5 -20.5t-74 -8.5t-47.5 -1q-25 0 -49 1t-75 8.5t-95.5 20.5 t-103.5 40t-107 64t-97 96t-82 131.5t-54 175t-21 223.5zM297 717q0 -54 5 -106t18.5 -113t35.5 -113.5t59.5 -102.5t86 -85t119 -56.5t155.5 -21.5q30 0 58.5 2.5t79.5 15.5t93 35t90 67t81 106t55 157t22 215q0 129 -29 236.5t-86.5 189t-150 127t-213.5 45.5 q-90 0 -164 -25.5t-122.5 -65t-85.5 -95.5t-56.5 -109.5t-31.5 -115t-15.5 -104t-3.5 -83.5z" />
<glyph unicode="P" horiz-adv-x="1308" d="M174 0v1434h584q485 0 485 -412q0 -451 -504 -451h-372v-571h-193zM367 733h352q168 0 248 71t80 214q0 131 -80.5 192.5t-247.5 61.5h-352v-539z" />
<glyph unicode="Q" horiz-adv-x="1552" d="M92 717q0 58 6.5 119t26.5 138t51 145t84.5 135t122.5 115.5t170.5 78t222.5 29.5q151 0 275.5 -48.5t216 -142t142 -239t50.5 -330.5q0 -69 -6.5 -129t-25.5 -142t-63.5 -164.5t-111.5 -154.5l162 -178l-106 -101l-170 191q-138 -82 -363 -82q-115 0 -212 26t-166.5 70 t-123.5 105.5t-87.5 128.5t-55.5 143.5t-30.5 146t-8.5 140.5zM297 717q0 -53 5 -104t18.5 -112t35.5 -113.5t59.5 -103t86 -86t119 -57.5t155.5 -22q158 0 238 57l-160 178l111 97l161 -183q66 84 97.5 191.5t31.5 257.5q0 110 -19 201t-49.5 151.5t-74 107t-86 72 t-91.5 41.5t-85.5 20.5t-73.5 4.5q-38 0 -76 -5t-87 -21t-91.5 -41.5t-85 -72t-72.5 -107t-48.5 -151t-18.5 -200.5z" />
<glyph unicode="R" horiz-adv-x="1394" d="M174 0v1434h635q475 0 475 -385q0 -82 -28.5 -156.5t-85.5 -129t-132 -69.5v-6q47 -17 82 -39t57 -50t35.5 -54t20 -64.5t9 -66t3.5 -72.5q1 -25 2 -76t1.5 -66t3 -49t6 -46.5t9.5 -34.5t14.5 -37t21.5 -33h-203q-36 44 -43.5 96.5t-9.5 206.5q-1 39 -2.5 64t-7.5 60 t-16.5 58t-30.5 48.5t-48 40t-70 24.5t-96 10h-409v-608h-193zM367 770h430q32 0 65 5t73.5 22t71 43.5t51.5 75t21 112.5q0 69 -22.5 117.5t-66 75.5t-97.5 39t-125 12h-401v-502z" />
<glyph unicode="S" horiz-adv-x="1343" d="M92 455h193v-12q0 -138 106 -229q111 -95 303 -95q93 0 163 22t110.5 60t60 84.5t19.5 99.5q0 51 -18 91t-44.5 65t-68.5 45.5t-76 30.5t-82 20q-29 6 -85 18q-82 17 -122.5 26t-108 28.5t-102 37.5t-79.5 49t-66.5 67t-37.5 87.5t-16 114.5q0 198 147 305t396 107 q128 0 229 -33.5t163.5 -92t97 -132t40.5 -158.5h-192q-7 67 -37.5 116.5t-67.5 75t-87 40.5t-83.5 18.5t-68.5 3.5q-150 0 -241 -65.5t-91 -174.5q0 -41 12 -73.5t38 -55t54 -39t73 -29.5t80.5 -21t90.5 -19q7 -1 11 -2q200 -38 288 -73q192 -77 240 -239q18 -62 18 -135 q0 -88 -26 -158.5t-64.5 -114.5t-96.5 -76.5t-106 -47.5t-110.5 -24t-93.5 -10t-70 -1q-51 0 -96.5 3.5t-105.5 16t-110 33.5t-102 59t-88 89t-61 127t-29 170z" />
<glyph unicode="T" horiz-adv-x="1177" d="M27 1272v162h1124v-162h-465v-1272h-192v1272h-467z" />
<glyph unicode="U" horiz-adv-x="1425" d="M147 555v879h193v-854q0 -47 1.5 -81.5t9.5 -86t22 -88.5t42 -78t66.5 -67t97.5 -43t134 -17q205 0 288.5 113t83.5 348v854h193v-879q0 -95 -15 -175t-38 -137t-59.5 -103t-72 -75.5t-82 -51t-83 -32t-82.5 -16.5t-72.5 -7t-60.5 -1q-108 0 -195.5 21t-145.5 54 t-101 83.5t-66 100t-37 114t-17.5 114.5t-3.5 111z" />
<glyph unicode="V" horiz-adv-x="1216" d="M-8 1434h211l405 -1235l406 1235h211l-502 -1434h-229z" />
<glyph unicode="W" horiz-adv-x="1683" d="M-82 1434h217l299 -1205l297 1205h221l297 -1205l299 1205h217l-381 -1434h-245l-297 1206l-297 -1206h-246z" />
<glyph unicode="X" horiz-adv-x="1167" d="M-41 0l502 733l-475 701h239l359 -564l358 564h240l-475 -701l501 -733h-247l-377 596l-377 -596h-248z" />
<glyph unicode="Y" horiz-adv-x="927" d="M-164 1434h230l399 -664l397 664h230l-531 -836v-598h-192v598z" />
<glyph unicode="Z" horiz-adv-x="1214" d="M53 0v176l842 1096h-797v162h1022v-154l-831 -1118h872v-162h-1108z" />
<glyph unicode="[" horiz-adv-x="757" d="M217 -379v1813h432v-127h-252v-1559h252v-127h-432z" />
<glyph unicode="\" horiz-adv-x="860" d="M0 1434h129l731 -1813h-129z" />
<glyph unicode="]" horiz-adv-x="757" d="M109 -252h249v1559h-249v127h432v-1813h-432v127z" />
<glyph unicode="^" horiz-adv-x="905" d="M115 987l245 447h185l246 -447h-144l-194 359l-195 -359h-143z" />
<glyph unicode="_" horiz-adv-x="1017" d="M0 -272h1018v-107h-1018v107z" />
<glyph unicode="`" horiz-adv-x="638" d="M86 1434h217l143 -271h-163z" />
<glyph unicode="a" horiz-adv-x="1132" d="M76 272q0 57 13 99.5t46.5 82.5t90.5 67.5t147 48.5t213 32q114 9 140 18q46 15 57 65q5 24 5 60q0 15 -0.5 27t-5.5 35t-13.5 40.5t-26 38.5t-41 35t-61.5 23.5t-85 9.5q-24 0 -44 -1.5t-56 -7.5t-63 -20.5t-53.5 -37.5t-40.5 -63q-13 -37 -13 -84v-7h-172v8q-1 41 9 81 q10 44 40.5 92.5t77.5 84t128.5 59t186.5 23.5q58 0 109 -6.5t110.5 -29t100.5 -59t69 -102.5q26 -62 25 -141v-12l-11 -481q-1 -37 1 -55.5t12 -37.5t33 -25t63 -5v-127q-33 -8 -82 -8q-85 0 -128.5 28.5t-57.5 122.5q-51 -93 -147 -138.5t-210 -45.5q-170 0 -268 77.5 t-98 235.5zM262 279q0 -89 56 -141t145 -52q46 0 86.5 9t83 33.5t73.5 63.5t52.5 103.5t25.5 148.5l4 88q-20 -15 -45 -24t-45 -11.5t-64.5 -7t-74.5 -8.5q-136 -21 -176 -35q-96 -33 -115 -113q-6 -25 -6 -54z" />
<glyph unicode="b" horiz-adv-x="1230" d="M147 0v1434h181v-529q41 87 132.5 131.5t209.5 44.5q93 0 168 -25t123 -62.5t84 -92.5t54 -104.5t28.5 -108t13 -94t2.5 -72.5q0 -130 -31.5 -232t-80.5 -162.5t-114.5 -100t-126.5 -54t-124 -14.5q-218 0 -344 184h-7v-143h-168zM315 526q0 -117 26.5 -205.5t71.5 -138 t99 -73t115 -23.5q53 0 99.5 14t88.5 46.5t72 81.5t47.5 124.5t17.5 169.5q0 219 -88.5 325.5t-226.5 106.5q-141 0 -231.5 -106.5t-90.5 -321.5z" />
<glyph unicode="c" horiz-adv-x="1122" d="M88 528q0 79 12.5 151t46.5 147.5t87.5 130t143.5 89.5t206 35q106 0 191 -29.5t139 -81t85.5 -116t40.5 -139.5h-172q-9 55 -29 97.5t-47.5 67.5t-54 41t-58.5 22.5t-51 8.5t-40 2q-82 0 -143 -33t-96.5 -92t-52.5 -134t-17 -167q0 -90 18.5 -167.5t55.5 -140 t100.5 -98.5t146.5 -36q59 0 107 19t78 48t51 68t30 76t11 74h172q-3 -31 -9 -62t-21 -73.5t-36 -79t-56.5 -74t-79.5 -64t-109 -43t-142 -16.5q-32 0 -61.5 2t-84 14t-99 33t-95.5 63.5t-86 100.5t-58.5 150t-23.5 206z" />
<glyph unicode="d" horiz-adv-x="1226" d="M88 522q0 51 4.5 100t18.5 106t35.5 106t58 95.5t84 79t116.5 52.5t152 20q115 0 199 -38.5t143 -137.5v529h180v-1434h-168v143h-6q-95 -184 -344 -184q-223 0 -348 154.5t-125 408.5zM279 522q0 -112 24.5 -195.5t58.5 -128t81.5 -71.5t83 -34t73.5 -7q62 0 115.5 24 t98.5 74t71 137.5t26 204.5q0 109 -25.5 193t-70.5 134.5t-102 75.5t-123 25q-139 0 -225 -107t-86 -325z" />
<glyph unicode="e" horiz-adv-x="1167" d="M88 516q0 39 2.5 76.5t14.5 96.5t31.5 109t58 104.5t90 92t132 62t179.5 24.5q86 0 157 -19.5t119 -50t84.5 -77t58 -92.5t35.5 -105t19.5 -105.5t7.5 -101.5q0 -8 1 -25.5t1 -25.5h-800q1 -71 19 -137t55 -125.5t102.5 -95t152.5 -35.5q122 0 197.5 62t91.5 153h172 q-10 -49 -27 -92.5t-52.5 -91t-83.5 -81t-123.5 -55.5t-168.5 -22q-106 0 -191.5 27t-139 66.5t-93 97t-58.5 107t-30 109t-12.5 89t-1.5 61.5zM279 606h610q-1 47 -8.5 90t-27.5 92t-50.5 84t-82.5 58.5t-120 23.5q-76 0 -135 -24t-93 -61t-56 -85q-22 -49 -30 -92 q-7 -38 -7 -76v-10z" />
<glyph unicode="f" horiz-adv-x="653" d="M27 913v127h192v142q0 134 68 197t207 63q9 0 133 -8v-127q-43 2 -127 2q-101 0 -101 -144v-125h228v-127h-228v-913h-180v913h-192z" />
<glyph unicode="g" horiz-adv-x="1228" d="M96 528q0 26 0.5 45t4.5 63t11.5 78.5t23.5 83t37.5 85t56.5 75.5t78 64.5t104.5 42t134.5 16.5q258 0 360 -184h6v143h168v-1013q0 -82 -21 -149t-53.5 -109.5t-78.5 -74.5t-88 -48.5t-90.5 -26.5t-78 -12t-57.5 -2h-40t-48 2.5t-58 6.5t-59 13.5t-61.5 23t-56 35 t-53 48.5t-40.5 65t-30 84h172q11 -43 39.5 -73.5t68 -46t80.5 -22.5t86 -7q58 0 105 15.5t76 38.5t50.5 56.5t32 62t16 63t6.5 51.5t1 36v113q-72 -118 -146 -164.5t-190 -46.5q-96 0 -178.5 33.5t-148.5 100t-104 178.5t-38 257zM287 535q0 -86 13.5 -156.5t35 -116.5 t51.5 -80t58.5 -52t61.5 -28.5t55 -13t44 -2.5q17 0 38 3.5t51.5 15t59 30t58 53t51 79.5t35.5 113.5t14 151.5q0 198 -83.5 310t-239.5 112q-62 0 -112 -19.5t-81 -48t-53.5 -72t-33 -78.5t-16.5 -82t-6.5 -68.5t-0.5 -50.5z" />
<glyph unicode="h" horiz-adv-x="1171" d="M147 0v1434h181v-539q71 97 157.5 141.5t198.5 44.5q56 0 103 -11t80 -27.5t59 -44t42 -51t28 -58.5t17 -57t8 -57t3 -46.5v-36.5v-692h-180v637v9v38.5t-1.5 40t-4.5 42.5t-8 40t-13 39t-19.5 34t-28 30.5t-36.5 22.5t-47 16t-59 5q-36 0 -69.5 -6.5t-77.5 -30.5 t-75.5 -63.5t-54 -113.5t-22.5 -173v-567h-181z" />
<glyph unicode="i" horiz-adv-x="466" d="M143 0v1040h181v-1040h-181zM143 1245v189h181v-189h-181z" />
<glyph unicode="j" horiz-adv-x="473" d="M-33 -252q37 7 60.5 11t45.5 11.5t33 11t21 15t13.5 18t6.5 25.5t3 31v41v14v1114h180v-1136q0 -147 -54 -219t-192 -72q-17 0 -117 8v127zM150 1245v189h180v-189h-180z" />
<glyph unicode="k" horiz-adv-x="1071" d="M147 0v1434h181v-889l495 495h215l-409 -401l450 -639h-209l-366 528l-176 -174v-354h-181z" />
<glyph unicode="l" horiz-adv-x="475" d="M147 0v1434h181v-1434h-181z" />
<glyph unicode="m" horiz-adv-x="1785" d="M147 0v1040h181v-141l-2 -12q41 88 131 141t190 53q125 0 198.5 -64t98.5 -159q19 37 44.5 70t68.5 70.5t107.5 60t140.5 22.5q65 0 118 -17t87 -43.5t59 -65t38 -73.5t20.5 -79t9 -71.5t1.5 -59.5v-672h-180v659q0 41 -3 74t-14.5 77t-32 73t-59.5 50t-92 21 q-39 0 -75 -8.5t-73.5 -32t-64.5 -59.5t-44 -96t-17 -137v-621h-180v657q0 297 -201 297q-116 0 -195 -91.5t-79 -241.5v-621h-181z" />
<glyph unicode="n" horiz-adv-x="1173" d="M147 0v1040h181v-145q58 83 149.5 134.5t206.5 51.5q342 0 342 -389v-692h-180v637v41t-1.5 43t-5 48.5t-11 44.5t-17.5 45t-27 36.5t-38.5 32t-52 18.5t-66.5 8t-69.5 -6.5t-77.5 -30.5t-75.5 -63.5t-54 -113.5t-22.5 -173v-567h-181z" />
<glyph unicode="o" horiz-adv-x="1200" d="M88 520q0 86 16.5 164.5t55 152t96 127t146 85.5t198.5 32t198.5 -32t146 -85.5t96 -127t55 -152t16.5 -164.5t-16.5 -164.5t-55 -152t-96 -127t-146 -85.5t-198.5 -32t-198.5 32t-146 85.5t-96 127t-55 152t-16.5 164.5zM279 522q0 -86 14 -155t35.5 -113.5t52.5 -77.5 t59 -49.5t62 -26.5t54.5 -12t43.5 -2t43.5 2t55 12t62.5 26.5t59 49.5t52.5 77.5t35.5 113.5t14 155t-14 155t-35.5 113.5t-52.5 77.5t-59 49.5t-62.5 26.5t-55 12t-43.5 2t-43.5 -2t-54.5 -12t-62 -26.5t-59 -49.5t-52.5 -77.5t-35.5 -113.5t-14 -155z" />
<glyph unicode="p" horiz-adv-x="1222" d="M147 -379v1419h168v-143h7q123 184 344 184q98 0 181.5 -33.5t148.5 -100t102 -176t37 -251.5q0 -118 -25.5 -214t-69.5 -159.5t-104 -106.5t-126 -62t-140 -19q-26 0 -60 5.5t-89.5 22t-108 59t-84.5 104.5v-529h-181zM315 516q0 -93 20.5 -168t53 -123t76 -80 t86.5 -45.5t86 -13.5q46 0 88 13t82.5 44.5t70.5 80t48 124.5t18 172q0 202 -83 318t-234 116q-35 0 -69.5 -7t-80.5 -34.5t-80 -72t-58 -128.5t-24 -196z" />
<glyph unicode="q" horiz-adv-x="1224" d="M88 520q0 116 29.5 216.5t86.5 178t149 122t208 44.5q119 0 205 -51.5t137 -132.5h6v143h168v-1419h-180v526q-101 -188 -342 -188q-82 0 -150 21t-115.5 55t-84 82t-58 98t-35.5 107t-19 104t-5 94zM279 520q0 -119 27 -207t73 -135.5t98.5 -69.5t112.5 -22 q55 0 108 22.5t102 70t79 135t30 202.5q0 100 -18.5 178t-48.5 126t-71.5 79t-83 43t-87.5 12q-66 0 -121.5 -24t-101.5 -73.5t-72 -135.5t-26 -201z" />
<glyph unicode="r" horiz-adv-x="755" d="M147 0v1040h181v-200h4q37 110 132 172t212 67l53 2v-127q-192 -9 -289 -91t-110 -273q-2 -37 -2 -111v-479h-181z" />
<glyph unicode="s" horiz-adv-x="1036" d="M74 309h180q1 -60 26 -104.5t66.5 -69.5t89.5 -37t101 -12q50 0 89.5 9t64 22t42 33.5t25.5 36.5t12.5 39t5 32t0.5 25q0 24 -3 40t-15 36t-35 35t-64.5 31t-101.5 30l-111 24q-52 11 -86.5 21t-76 26.5t-68 37.5t-50.5 51t-35 72t-11 95q0 83 34.5 143.5t93.5 93 t125 47.5t142 15q101 0 178.5 -22.5t121 -54.5t72 -77.5t38 -82t12.5 -76.5h-172q-2 28 -11.5 55t-33.5 59t-75 52t-124 20q-14 0 -25 -1t-40.5 -4.5t-51.5 -14t-46.5 -27t-38 -47t-13.5 -69.5q0 -24 4 -44t15.5 -36t21 -28t30.5 -22.5t33.5 -16.5t42 -14t43 -11t48.5 -10.5 l49 -10.5q55 -12 88.5 -20.5t77.5 -23t70.5 -29t55 -36.5t44 -49t25.5 -63.5t10 -81.5q0 -67 -22 -121.5t-54.5 -88.5t-78 -59.5t-85 -37.5t-84 -19.5t-65.5 -8.5t-39 -1q-221 0 -338.5 99t-122.5 251z" />
<glyph unicode="t" horiz-adv-x="655" d="M27 913v127h186v312h180v-312h221v-127h-221v-661q0 -73 10 -96q19 -47 99 -47q49 0 112 18v-127q-93 -41 -188 -41q-35 0 -64 5.5t-49.5 13.5t-37 23.5t-27 28t-17.5 34.5t-10.5 35.5t-5.5 39.5t-2 38v38v698h-186z" />
<glyph unicode="u" horiz-adv-x="1173" d="M147 350v690h181v-637q0 -95 15.5 -159.5t46.5 -98t68 -46.5t89 -13q62 0 111.5 18.5t80.5 44.5t53 67t32 72.5t15.5 76.5t6 62.5t0.5 45.5v567h180v-1040h-180v147h-4q-29 -51 -73.5 -89t-84.5 -56t-85.5 -28.5t-68 -12.5t-41.5 -2q-342 0 -342 391z" />
<glyph unicode="v" horiz-adv-x="962" d="M-8 1040h194l295 -860l295 860h195l-385 -1040h-209z" />
<glyph unicode="w" horiz-adv-x="1474" d="M-8 1040h186l254 -833l217 833h176l217 -833l254 833h187l-336 -1040h-193l-217 834l-217 -834h-192z" />
<glyph unicode="x" horiz-adv-x="991" d="M0 0l393 543l-364 497h200l267 -385l266 385h201l-365 -497l393 -543h-200l-295 428l-295 -428h-201z" />
<glyph unicode="y" horiz-adv-x="1019" d="M14 1040h215l334 -841l277 841h180l-414 -1163q-2 -6 -10.5 -31t-12 -35.5t-13.5 -34.5t-17.5 -36t-21 -32.5t-26 -31t-31.5 -25t-39 -21.5t-46 -12t-55 -5q-102 0 -148 10v133q66 -10 90 -10q31 0 55 10.5t39 23.5t29.5 40.5t21.5 46t19 55.5l25 78z" />
<glyph unicode="z" horiz-adv-x="958" d="M53 0v127l623 786h-580v127h778v-127l-604 -786h635v-127h-852z" />
<glyph unicode="{" horiz-adv-x="749" d="M154 459v135q31 4 58 16t57.5 39.5t48.5 84.5t18 136q0 37 -4 111t-4 109q0 324 319 344v-109q-143 -30 -143 -195q0 -52 6 -108q6 -58 6 -117q0 -141 -56.5 -230.5t-180.5 -146.5v-4q124 -57 180.5 -146.5t56.5 -230.5q0 -57 -6 -116q-6 -55 -6 -109q0 -164 143 -194 v-109q-319 20 -319 344q0 35 4 109t4 110q0 79 -18 136t-48.5 85t-57.5 40t-58 16z" />
<glyph unicode="|" horiz-adv-x="978" d="M426 -459v2157h127v-2157h-127z" />
<glyph unicode="}" horiz-adv-x="749" d="M102 -272q144 31 144 194q0 54 -6 109q-7 68 -7 116q0 141 56.5 230.5t181.5 146.5v4q-125 57 -181.5 146.5t-56.5 230.5q0 49 7 117q6 56 6 108q0 164 -144 195v109q320 -20 320 -344q0 -35 -4 -109t-4 -111q0 -79 18 -136t48.5 -84.5t57.5 -39.5t58 -16v-135 q-31 -4 -58 -16t-57.5 -40t-48.5 -85t-18 -136q0 -36 4 -110t4 -109q0 -324 -320 -344v109z" />
<glyph unicode="~" horiz-adv-x="1228" d="M102 623q17 46 39 86.5t55 83t79.5 67.5t99.5 25q92 0 178 -47l211 -113q2 -2 16 -8t40 -12.5t50 -6.5q18 0 38 6.5t45 23t50 51.5t44 85l79 -33q-17 -46 -39 -86.5t-54.5 -83t-79 -67.5t-99.5 -25q-92 0 -178 47l-211 113q-56 27 -109 27q-57 0 -104 -48t-70 -118z" />
<glyph unicode="&#xa9;" horiz-adv-x="1650" d="M109 717q0 195 94.5 359.5t259.5 261t362 96.5t362 -96.5t260 -261t95 -359.5t-95 -359.5t-260 -261t-362 -96.5t-362 96.5t-259.5 261t-94.5 359.5zM244 717q0 -167 76.5 -306.5t210.5 -220.5t294 -81t294 81t211 220.5t77 306.5t-77 306.5t-211 220.5t-294 81t-294 -81 t-210.5 -220.5t-76.5 -306.5zM494 719q0 90 21.5 160t55 111.5t79 68t88 36t87.5 9.5q47 0 93.5 -12t91 -37.5t72 -73.5t28.5 -113h-127q-2 21 -9 40.5t-22.5 42t-48.5 36.5t-78 14q-50 0 -86.5 -21t-56.5 -50t-31.5 -70.5t-14.5 -73.5t-3 -67q0 -27 4 -57t17 -68.5t34 -68 t59.5 -50t88.5 -20.5q138 0 157 153h135q-11 -63 -33.5 -110.5t-50.5 -74.5t-65 -43.5t-71 -22t-74 -5.5q-80 0 -142.5 25t-99 63t-59.5 89.5t-31 97t-8 92.5z" />
<glyph unicode="&#xab;" horiz-adv-x="946" d="M127 473v168l305 268v-168l-217 -184l217 -184v-168zM487 473v168l306 268v-168l-218 -184l218 -184v-168z" />
<glyph unicode="&#xad;" horiz-adv-x="864" d="M162 461v174h540v-174h-540z" />
<glyph unicode="&#xae;" horiz-adv-x="1650" d="M109 717q0 195 94.5 359.5t259.5 261t362 96.5t362 -96.5t260 -261t95 -359.5t-95 -359.5t-260 -261t-362 -96.5t-362 96.5t-259.5 261t-94.5 359.5zM244 717q0 -167 76.5 -306.5t210.5 -220.5t294 -81t294 81t211 220.5t77 306.5t-77 306.5t-211 220.5t-294 81t-294 -81 t-210.5 -220.5t-76.5 -306.5zM563 365v716h318q28 0 54 -3.5t61 -16t60 -34t42.5 -61t17.5 -92.5q0 -114 -121 -163v-4q33 -6 54 -23t31 -44.5t13 -48.5t5 -56q1 -24 2.5 -55.5l2 -42t3 -26.5t7 -25t13.5 -21h-137q-4 5 -7 9t-5 7.5t-4 9t-3 9.5t-2 13t-1.5 14.5t-1 18.5 t-0.5 22t-1 27.5t-1 32.5q-1 32 -4.5 50t-17.5 40.5t-48 33t-88 10.5h-109v-297h-133zM696 760h154q131 0 131 114q0 61 -37.5 85t-107.5 24h-140v-223z" />
<glyph unicode="&#xbb;" horiz-adv-x="946" d="M154 205v168l217 184l-217 184v168l305 -268v-168zM514 205v168l217 184l-217 184v168l305 -268v-168z" />
<glyph unicode="&#x410;" horiz-adv-x="1273" d="M-8 0l543 1434h204l543 -1434h-207l-135 371h-606l-135 -371h-207zM387 532h500l-250 707z" />
<glyph unicode="&#x411;" horiz-adv-x="1368" d="M174 0v1434h1018v-162h-825v-430h440q38 0 72 -2t85 -12t92 -26.5t86 -49t75 -76t49.5 -110.5t19.5 -150q0 -62 -12 -117t-45 -111t-84.5 -96.5t-137.5 -66t-198 -25.5h-635zM367 162h401q322 0 322 252q0 266 -322 266h-401v-518z" />
<glyph unicode="&#x412;" horiz-adv-x="1411" d="M174 0v1434h629q100 0 177.5 -22t124 -57.5t76 -85t40 -97.5t10.5 -103q0 -114 -69 -201t-171 -106v-6q40 -7 77.5 -20t79.5 -41t72.5 -65.5t51 -97.5t20.5 -133q0 -399 -512 -399h-606zM367 162h399q48 0 86.5 4t86.5 19t80 41t54.5 74.5t22.5 115.5q0 132 -85.5 190 t-244.5 58h-399v-502zM367 825h387q148 0 214 62.5t66 161.5q0 29 -5 55t-22 58.5t-45.5 55t-80.5 38.5t-121 16h-393v-447z" />
<glyph unicode="&#x413;" horiz-adv-x="1114" d="M174 0v1434h913v-162h-720v-1272h-193z" />
<glyph unicode="&#x414;" horiz-adv-x="1511" d="M0 162h129q272 335 272 977v295h877v-1272h207l-19 -486h-168v324h-1114v-324h-168zM358 162h727v1110h-491v-178q0 -298 -52 -516.5t-184 -415.5z" />
<glyph unicode="&#x415;" horiz-adv-x="1253" d="M174 0v1434h1022v-162h-829v-451h751v-162h-751v-497h852v-162h-1045z" />
<glyph unicode="&#x416;" horiz-adv-x="1859" d="M-8 0l661 768l-633 666h230l584 -631v631h192v-631l584 631h229l-633 -666l662 -768h-234l-608 715v-715h-192v715l-609 -715h-233z" />
<glyph unicode="&#x417;" horiz-adv-x="1366" d="M92 440h193q23 -321 407 -321q101 0 174.5 26t112 69.5t55.5 90t17 98.5q0 40 -7.5 75t-29 72.5t-56.5 63.5t-95.5 43t-139.5 17h-188v162h170q20 0 37 1t48.5 5.5t56 13t53.5 25.5t48 40t32 60t13 82q0 51 -15.5 92t-38.5 66.5t-57 44.5t-63 28t-64.5 14t-53 6t-37.5 1 t-38 -1t-55.5 -6.5t-68 -15.5t-67 -30.5t-62 -49t-44 -74t-20.5 -102.5h-192q28 441 561 441q239 0 375.5 -101.5t136.5 -300.5q0 -118 -66.5 -204.5t-177.5 -106.5v-4q301 -69 301 -375q0 -62 -14 -118t-52 -114t-96.5 -100.5t-156 -69t-223.5 -26.5q-143 0 -252 29.5 t-174.5 75.5t-108 112t-59 129.5t-19.5 136.5z" />
<glyph unicode="&#x418;" horiz-adv-x="1497" d="M174 0v1434h193v-1153l763 1153h193v-1434h-193v1161l-763 -1161h-193z" />
<glyph unicode="&#x419;" horiz-adv-x="1497" d="M174 0v1434h193v-1153l763 1153h193v-1434h-193v1161l-763 -1161h-193zM397 1757h154q3 -67 53 -114.5t146 -47.5t145.5 47.5t52.5 114.5h154q-59 -270 -352 -270q-294 0 -353 270z" />
<glyph unicode="&#x41a;" horiz-adv-x="1284" d="M174 0v1434h193v-654l645 654h235l-682 -664l727 -770h-252l-673 748v-748h-193z" />
<glyph unicode="&#x41b;" horiz-adv-x="1437" d="M27 0v168q73 -14 132 11.5t106.5 96t73.5 208t26 333.5v617h899v-1434h-193v1272h-514v-496q0 -122 -11 -225.5t-31.5 -182.5t-49.5 -142t-65.5 -104.5t-79 -71.5t-89.5 -42t-98.5 -15.5t-105.5 7.5z" />
<glyph unicode="&#x41c;" horiz-adv-x="1822" d="M174 0v1434h289l448 -1180l449 1180h289v-1434h-193v1149l4 55h-6l-465 -1204h-155l-467 1204h-5l5 -55v-1149h-193z" />
<glyph unicode="&#x41d;" horiz-adv-x="1454" d="M174 0v1434h193v-598h720v598h193v-1434h-193v674h-720v-674h-193z" />
<glyph unicode="&#x41e;" horiz-adv-x="1552" d="M92 717q0 185 50.5 330t142 238.5t216 142.5t275.5 49q101 0 194 -22.5t184 -77.5t157.5 -139.5t107.5 -218t41 -302.5q0 -121 -21 -223.5t-54.5 -175t-82.5 -131.5t-97.5 -96t-107.5 -64t-104 -40t-95.5 -20.5t-74 -8.5t-47.5 -1q-25 0 -49 1t-75 8.5t-95.5 20.5 t-103.5 40t-107 64t-97 96t-82 131.5t-54 175t-21 223.5zM297 717q0 -54 5 -106t18.5 -113t35.5 -113.5t59.5 -102.5t86 -85t119 -56.5t155.5 -21.5q30 0 58.5 2.5t79.5 15.5t93 35t90 67t81 106t55 157t22 215q0 129 -29 236.5t-86.5 189t-150 127t-213.5 45.5 q-90 0 -164 -25.5t-122.5 -65t-85.5 -95.5t-56.5 -109.5t-31.5 -115t-15.5 -104t-3.5 -83.5z" />
<glyph unicode="&#x41f;" horiz-adv-x="1454" d="M174 0v1434h1106v-1434h-193v1272h-720v-1272h-193z" />
<glyph unicode="&#x420;" horiz-adv-x="1308" d="M174 0v1434h584q485 0 485 -412q0 -451 -504 -451h-372v-571h-193zM367 733h352q168 0 248 71t80 214q0 131 -80.5 192.5t-247.5 61.5h-352v-539z" />
<glyph unicode="&#x421;" horiz-adv-x="1458" d="M92 692q0 156 32 282.5t80 206.5t117 139.5t129 88t132 45.5t110 20t76 3q132 0 235 -30.5t165.5 -77.5t105.5 -114t61.5 -129.5t26.5 -134.5h-193q-4 37 -14 73.5t-37.5 84t-69 82.5t-114.5 59.5t-166 24.5q-104 0 -186 -34.5t-134.5 -91.5t-87 -137.5t-49 -167 t-14.5 -184.5q0 -167 57.5 -298t168.5 -207t259 -76q170 0 283.5 100.5t122.5 255.5h192q-6 -48 -17.5 -94t-33.5 -99t-53 -98t-79 -88t-106.5 -73t-140 -48t-176.5 -18q-319 0 -500.5 195.5t-181.5 539.5z" />
<glyph unicode="&#x422;" horiz-adv-x="1177" d="M27 1272v162h1124v-162h-465v-1272h-192v1272h-467z" />
<glyph unicode="&#x423;" horiz-adv-x="1204" d="M18 1434h236l412 -863l344 863h202l-485 -1178q-24 -57 -50.5 -101t-51 -72.5t-54.5 -49t-52.5 -30.5t-55 -15.5t-51.5 -6.5t-50 -1q-85 0 -159 20v168q65 -23 135 -23q28 0 49 3t47.5 15.5t47 34t42.5 62t39 96.5z" />
<glyph unicode="&#x424;" horiz-adv-x="1822" d="M86 731q0 34 3 68.5t18 93.5t39.5 110t74 107.5t115.5 96t169 65.5t230 26h80v218h193v-218h79q58 0 114.5 -6t122.5 -22.5t123 -43t111.5 -71t93 -101.5t62 -140t23.5 -183q0 -106 -27 -192.5t-69.5 -144.5t-102.5 -102t-118.5 -68t-124.5 -38.5t-114 -19t-94 -4.5h-79 v-215h-193v215h-80q-37 0 -75.5 2.5t-106 15t-126 34t-124 65t-111 101t-76 148.5t-30.5 203zM291 731q0 -25 0.5 -43.5t5.5 -53t13 -61t24.5 -61.5t39.5 -61t59.5 -53.5t81.5 -45t108.5 -28.5t138.5 -11h53v834h-53q-75 0 -138.5 -11.5t-108.5 -29t-81.5 -45t-59.5 -54 t-39.5 -61.5t-24.5 -61.5t-13 -60.5t-5.5 -51.5t-0.5 -41.5zM1008 313h55q469 0 469 418q0 84 -21 151.5t-51.5 110.5t-77.5 74t-86.5 46t-91 23t-79 9.5t-62.5 1.5h-55v-834z" />
<glyph unicode="&#x425;" horiz-adv-x="1249" d="M0 0l502 733l-475 701h239l359 -564l358 564h240l-475 -701l501 -733h-248l-376 596l-377 -596h-248z" />
<glyph unicode="&#x426;" horiz-adv-x="1513" d="M174 0v1434h193v-1272h727v1272h192v-1272h201l-14 -486h-168v324h-1131z" />
<glyph unicode="&#x427;" horiz-adv-x="1302" d="M119 983v451h192v-420q0 -55 9 -95.5t30 -67t46.5 -43t68.5 -25t85.5 -11t106.5 -2.5q41 0 279 14v650h192v-1434h-192v623q-285 -15 -315 -15q-111 0 -188 9.5t-140 34t-99.5 67t-55.5 107.5t-19 157z" />
<glyph unicode="&#x428;" horiz-adv-x="2084" d="M174 0v1434h193v-1272h579v1272h193v-1272h579v1272h193v-1434h-1737z" />
<glyph unicode="&#x429;" horiz-adv-x="2150" d="M174 0v1434h193v-1272h579v1272h193v-1272h579v1272h193v-1272h213l-19 -486h-168v324h-1763z" />
<glyph unicode="&#x42a;" horiz-adv-x="1470" d="M27 1272v162h503v-584h412q59 0 115 -9t121.5 -37t113.5 -73.5t80.5 -125.5t32.5 -185q0 -77 -18 -141t-47 -106.5t-70.5 -75t-82 -50.5t-88.5 -29t-84 -14.5t-73 -3.5h-604v1272h-311zM530 162h390q14 0 30 1t45.5 7t56 16t56.5 30t51 46.5t35 69t14 94.5 q0 262 -315 262h-363v-526z" />
<glyph unicode="&#x42b;" horiz-adv-x="1757" d="M174 0v1434h193v-584h413q218 0 339.5 -113t121.5 -317q0 -107 -34 -187.5t-83 -123.5t-116.5 -69t-119.5 -33t-108 -7h-606zM367 162h387q35 0 69.5 5.5t76 23t72 45t51.5 77t21 113.5q0 43 -9 78t-21.5 60.5t-36 46t-43.5 33t-52.5 21.5t-54 13.5t-58 6.5t-55.5 2.5 t-53 0.5h-10h-284v-526zM1391 0v1434h192v-1434h-192z" />
<glyph unicode="&#x42c;" horiz-adv-x="1306" d="M174 0v1434h193v-584h411q59 0 115 -9t121.5 -37t113.5 -73.5t80.5 -125.5t32.5 -185q0 -77 -18 -141t-47 -106.5t-70.5 -75t-82 -50.5t-88.5 -29t-84 -14.5t-73 -3.5h-604zM367 162h389q14 0 30 1t45.5 7t56 16t56.5 30t51 46.5t35 69t14 94.5q0 262 -313 262h-364v-526 z" />
<glyph unicode="&#x42d;" horiz-adv-x="1472" d="M92 498h193q6 -42 18 -83.5t43.5 -97.5t75.5 -97.5t120 -71t171 -29.5q107 0 190.5 33t132 81.5t80.5 116t44.5 124.5t15.5 118q3 34 0 67h-676v162h676q-1 31 -4.5 63t-15.5 83t-31 95.5t-54.5 92.5t-82 82t-117 56t-156.5 22q-181 0 -287.5 -86t-122.5 -213h-192 q5 69 29 134t71 125t113 104.5t161.5 71t208.5 26.5q118 0 217 -26t168.5 -69t123 -104.5t86 -126.5t53.5 -141t28.5 -142t7.5 -135q0 -68 -6 -133t-24.5 -145t-48.5 -147.5t-82 -134t-121 -113t-169.5 -75t-223.5 -28.5q-129 0 -234 36t-170 91.5t-111.5 130t-68 143 t-29.5 140.5z" />
<glyph unicode="&#x42e;" horiz-adv-x="2033" d="M174 0v1434h193v-598h215q7 98 35 188t82 173.5t129.5 145t185.5 98t241 36.5q149 0 274 -49t217.5 -142t144 -239t51.5 -330q0 -128 -24.5 -239.5t-77.5 -208t-132 -165.5t-194.5 -108t-258.5 -39q-152 0 -271 44t-192.5 113.5t-123 167t-70 192t-25.5 200.5h-206v-674 h-193zM778 717q0 -97 15.5 -182.5t52 -163t90.5 -132.5t136 -87.5t185 -32.5q85 0 156 21.5t119.5 56.5t86 85.5t59.5 102.5t35.5 113.5t18.5 113t5 105.5q0 110 -19 200.5t-49 151t-72.5 107t-85 72t-91.5 41.5t-87 21t-76 5q-37 0 -74 -4.5t-86 -20.5t-91.5 -41.5 t-85.5 -71.5t-73.5 -107t-49.5 -152t-19 -201z" />
<glyph unicode="&#x42f;" horiz-adv-x="1392" d="M113 0l389 590q-46 3 -92 14t-101.5 40t-97 73t-70 119t-28.5 170q0 72 15.5 134t52 117t92 93.5t140.5 61t193 22.5h613v-1434h-193v569h-326l-350 -569h-237zM309 1004q0 -39 7 -73t29 -72.5t57.5 -65t99 -44.5t147.5 -18h377v541h-403q-74 0 -131.5 -17.5t-91 -44 t-55 -63.5t-29 -71.5t-7.5 -71.5z" />
<glyph unicode="&#x430;" horiz-adv-x="1132" d="M76 272q0 57 13 99.5t46.5 82.5t90.5 67.5t147 48.5t213 32q114 9 140 18q46 15 57 65q5 24 5 60q0 15 -0.5 27t-5.5 35t-13.5 40.5t-26 38.5t-41 35t-61.5 23.5t-85 9.5q-24 0 -44 -1.5t-56 -7.5t-63 -20.5t-53.5 -37.5t-40.5 -62.5t-13 -91.5h-172q-1 45 9.5 89 t40.5 92.5t77 84t128.5 59t186.5 23.5q58 0 109 -6.5t110.5 -29t100.5 -59t68.5 -102.5t25.5 -153l-11 -481q-1 -37 1 -55.5t12 -37.5t33 -25t63 -5v-127q-33 -8 -82 -8q-85 0 -128.5 28.5t-57.5 122.5q-51 -93 -147 -138.5t-210 -45.5q-170 0 -268 77.5t-98 235.5zM262 279 q0 -89 56 -141t145 -52q46 0 86.5 9t83 33.5t73.5 63.5t52.5 103.5t25.5 148.5l4 88q-20 -15 -45 -24t-45 -11.5t-64.5 -7t-74.5 -8.5q-136 -21 -176 -35q-96 -33 -115 -113q-6 -25 -6 -54z" />
<glyph unicode="&#x431;" horiz-adv-x="1212" d="M88 662q0 134 14.5 241t43 182t63.5 128.5t84 88.5t96.5 55t108.5 34q62 14 122.5 23.5t96.5 13t68.5 7.5t50.5 10.5t31 19.5t20 36h153q-3 -65 -31 -110.5t-68.5 -68.5t-98.5 -38t-110 -20t-116 -13.5t-104 -19.5q-49 -14 -89 -34t-78 -54t-64 -79.5t-42 -112.5 t-18 -150h4q13 35 31 67t52 69.5t76 64.5t105.5 45t139.5 18q104 0 188 -31t140.5 -84t94.5 -125.5t55 -152.5t17 -168q0 -106 -30 -200.5t-89.5 -173t-160.5 -125t-232 -46.5q-103 0 -185.5 29t-136 74t-93.5 111t-60 126.5t-32 135.5t-14.5 123.5t-2.5 103.5zM279 492 q0 -53 7.5 -104t30 -107.5t57.5 -98t95.5 -69t138.5 -27.5q158 0 242 106.5t84 290.5q0 40 -2.5 77.5t-11.5 85t-23 87t-39.5 78.5t-58.5 66t-82 44t-109 17t-109.5 -16.5t-83 -43t-59 -65t-40 -77.5t-23 -85t-11.5 -83t-3 -76z" />
<glyph unicode="&#x432;" horiz-adv-x="1103" d="M147 0v1040h496q330 0 330 -247q0 -52 -17 -95t-39 -67.5t-52 -44t-47 -26t-34 -11.5v-6q58 -14 100.5 -37.5t66.5 -50t38.5 -61t18.5 -62.5t4 -62q0 -69 -23.5 -119.5t-59 -78.5t-88 -45t-99.5 -22t-105 -5h-490zM328 127h264q26 0 48.5 1.5t59 10.5t62 25t44.5 47.5 t19 75.5q0 192 -239 192h-258v-352zM328 606h250q114 0 163.5 47.5t49.5 112.5q0 147 -205 147h-258v-307z" />
<glyph unicode="&#x433;" horiz-adv-x="886" d="M147 0v1040h713v-127h-532v-913h-181z" />
<glyph unicode="&#x434;" horiz-adv-x="1234" d="M0 127h131q84 125 127 296t43 443v174h746v-913h180l-15 -397h-151v270h-893v-270h-152zM322 127h544v786h-397v-145q0 -167 -35.5 -345.5t-111.5 -295.5z" />
<glyph unicode="&#x435;" horiz-adv-x="1167" d="M88 516q0 39 2.5 76.5t14.5 96.5t31.5 109t58 104.5t90 92t132 62t179.5 24.5q86 0 157 -19.5t119 -50t84.5 -77t58 -92.5t35.5 -105t19.5 -105.5t7.5 -101.5q0 -8 1 -25.5t1 -25.5h-800q1 -71 19 -137t55 -125.5t102.5 -95t152.5 -35.5q122 0 197.5 62t91.5 153h172 q-10 -49 -27 -92.5t-52.5 -91t-83.5 -81t-123.5 -55.5t-168.5 -22q-106 0 -191.5 27t-139 66.5t-93 97t-58.5 107t-30 109t-12.5 89t-1.5 61.5zM279 606h610q-1 47 -8.5 90t-27.5 92t-50.5 84t-82.5 58.5t-120 23.5q-76 0 -135 -24t-93 -61t-56.5 -85.5t-30 -91.5t-6.5 -86z " />
<glyph unicode="&#x436;" horiz-adv-x="1437" d="M-8 0l477 547l-451 493h213l398 -471v471h180v-471l397 471h213l-450 -493l477 -547h-223l-414 514v-514h-180v514l-414 -514h-223z" />
<glyph unicode="&#x437;" horiz-adv-x="1058" d="M66 319h172q2 -97 73 -165t203 -68q124 0 197 51.5t73 153.5q0 37 -10.5 67.5t-26.5 49.5t-39.5 32.5t-43.5 20.5t-45.5 11t-39.5 4.5t-30 0.5h-154v127h133q217 0 217 162q0 21 -3.5 41t-17.5 48.5t-38 49t-69.5 35t-106.5 14.5q-59 0 -104 -14.5t-71 -35.5t-42.5 -49.5 t-22 -52.5t-6.5 -48h-172q3 64 23.5 115.5t49.5 84.5t69.5 58t77 38t80.5 20.5t71.5 9t56.5 1.5q77 0 139.5 -12t104.5 -31.5t73.5 -47t49 -54.5t28.5 -58t14 -54t3 -46q0 -57 -18.5 -101t-49.5 -69t-57.5 -38t-54.5 -19v-6q92 -15 155.5 -81.5t63.5 -184.5q0 -30 -5 -59 t-18.5 -61.5t-35 -60.5t-56.5 -54t-79.5 -44.5t-108.5 -29.5t-140 -11q-114 0 -200.5 27t-133.5 65.5t-77 91.5t-39.5 93t-11.5 83z" />
<glyph unicode="&#x438;" horiz-adv-x="1218" d="M147 0v1040h181v-829l542 829h201v-1040h-180v831l-541 -831h-203z" />
<glyph unicode="&#x439;" horiz-adv-x="1218" d="M147 0v1040h181v-829l542 829h201v-1040h-180v831l-541 -831h-203zM252 1434h154q-7 -54 36 -101q29 -33 72 -49q35 -12 90 -12q86 0 144.5 44t54.5 118h153q-6 -30 -15 -58.5t-29.5 -63.5t-48.5 -62t-74 -49.5t-103 -31.5q-41 -6 -82 -6q-265 0 -338 215q-5 14 -14 56z " />
<glyph unicode="&#x43a;" horiz-adv-x="1001" d="M147 0v1040h181v-454l444 454h211l-487 -483l514 -557h-215l-467 520v-520h-181z" />
<glyph unicode="&#x43b;" horiz-adv-x="1144" d="M27 0v133q59 -12 103.5 2t70.5 57t42.5 86.5t23 118.5t8 123t1.5 129v391h721v-1040h-180v913h-373v-264q0 -128 -6 -216t-30 -187.5t-67.5 -154.5t-123 -83.5t-190.5 -7.5z" />
<glyph unicode="&#x43c;" horiz-adv-x="1499" d="M147 0v1040h248l355 -845l354 845h248v-1040h-181v780l7 56h-7l-352 -836h-139l-352 836h-4l4 -56v-780h-181z" />
<glyph unicode="&#x43d;" horiz-adv-x="1169" d="M147 0v1040h181v-428h514v428h180v-1040h-180v485h-514v-485h-181z" />
<glyph unicode="&#x43e;" horiz-adv-x="1200" d="M88 520q0 86 16.5 164.5t55 152t96 127t146 85.5t198.5 32t198.5 -32t146 -85.5t96 -127t55 -152t16.5 -164.5t-16.5 -164.5t-55 -152t-96 -127t-146 -85.5t-198.5 -32t-198.5 32t-146 85.5t-96 127t-55 152t-16.5 164.5zM279 522q0 -86 14 -155t35.5 -113.5t52.5 -77.5 t59 -49.5t62 -26.5t54.5 -12t43.5 -2t43.5 2t55 12t62.5 26.5t59 49.5t52.5 77.5t35.5 113.5t14 155t-14 155t-35.5 113.5t-52.5 77.5t-59 49.5t-62.5 26.5t-55 12t-43.5 2t-43.5 -2t-54.5 -12t-62 -26.5t-59 -49.5t-52.5 -77.5t-35.5 -113.5t-14 -155z" />
<glyph unicode="&#x43f;" horiz-adv-x="1181" d="M147 0v1040h887v-1040h-180v913h-526v-913h-181z" />
<glyph unicode="&#x440;" horiz-adv-x="1222" d="M147 -379v1419h168v-143h7q123 184 344 184q98 0 181.5 -33.5t148.5 -100t102 -176t37 -251.5q0 -118 -25.5 -214t-69.5 -159.5t-104 -106.5t-126 -62t-140 -19q-26 0 -60 5.5t-89.5 22t-108 59t-84.5 104.5v-529h-181zM315 516q0 -93 20.5 -168t53 -123t76 -80 t86.5 -45.5t86 -13.5q46 0 88 13t82.5 44.5t70.5 80t48 124.5t18 172q0 202 -83 318t-234 116q-35 0 -69.5 -7t-80.5 -34.5t-80 -72t-58 -128.5t-24 -196z" />
<glyph unicode="&#x441;" horiz-adv-x="1122" d="M88 528q0 79 12.5 151t46.5 147.5t87.5 130t143.5 89.5t206 35q106 0 191 -29.5t139 -81t85.5 -116t40.5 -139.5h-172q-9 55 -29 97.5t-47.5 67.5t-54 41t-58.5 22.5t-51 8.5t-40 2q-82 0 -143 -33t-96.5 -92t-52.5 -134t-17 -167q0 -90 18.5 -167.5t55.5 -140 t100.5 -98.5t146.5 -36q59 0 107 19t78 48t51 68t30 76t11 74h172q-3 -31 -9 -62t-21 -73.5t-36 -79t-56.5 -74t-79.5 -64t-109 -43t-142 -16.5q-32 0 -61.5 2t-84 14t-99 33t-95.5 63.5t-86 100.5t-58.5 150t-23.5 206z" />
<glyph unicode="&#x442;" horiz-adv-x="954" d="M27 913v127h901v-127h-361v-913h-180v913h-360z" />
<glyph unicode="&#x443;" horiz-adv-x="1019" d="M14 1040h215l334 -841l277 841h180l-414 -1163q-2 -6 -10.5 -31t-12 -35.5t-13.5 -34.5t-17.5 -36t-21 -32.5t-26 -31t-31.5 -25t-39 -21.5t-46 -12t-55 -5q-102 0 -148 10v133q66 -10 90 -10q31 0 55 10.5t39 23.5t29.5 40.5t21.5 46t19 55.5l25 78z" />
<glyph unicode="&#x444;" horiz-adv-x="1626" d="M88 526q0 47 6 93t23.5 102.5t46 105t78 95.5t113.5 79t159 50t209 14v369h180v-369q81 3 159 -7.5t167 -45t155 -92t110 -159t44 -235.5q0 -121 -34.5 -217t-108 -171.5t-198 -118t-294.5 -46.5v-352h-180v352q-143 3 -254.5 35t-182 83t-116 123t-64 148t-18.5 164z M279 528q0 -78 16.5 -142t43.5 -107t65.5 -76.5t78 -52.5t85 -30.5t81.5 -15.5t74 -4v838q-58 4 -115 -3.5t-118 -34.5t-106.5 -71.5t-75 -122t-29.5 -178.5zM903 100q89 0 161 19t119.5 53t81 75.5t51 92t25 95.5t7.5 93t-8.5 97.5t-37.5 111.5t-75 107t-130 73t-194 21 v-838z" />
<glyph unicode="&#x445;" horiz-adv-x="991" d="M0 0l393 543l-364 497h200l267 -385l266 385h201l-365 -497l393 -543h-200l-295 428l-295 -428h-201z" />
<glyph unicode="&#x446;" horiz-adv-x="1220" d="M147 0v1040h181v-913h524v913h180v-913h180l-14 -397h-151v270h-900z" />
<glyph unicode="&#x447;" horiz-adv-x="1040" d="M92 692v348h180v-319q0 -27 0.5 -39.5t3 -33t9 -30t17 -23t28 -19.5t42 -13t58.5 -9.5t78 -2.5q41 0 119 4q29 2 86 2v483h180v-1040h-180v430q-132 -6 -242 -6q-77 0 -136.5 8t-99 19.5t-67.5 33t-42.5 40.5t-22.5 51t-9.5 55t-1.5 61z" />
<glyph unicode="&#x448;" horiz-adv-x="1703" d="M147 0v1040h181v-913h434v913h180v-913h434v913h180v-1040h-1409z" />
<glyph unicode="&#x449;" horiz-adv-x="1740" d="M147 0v1040h181v-913h434v913h180v-913h434v913h180v-913h177l-17 -397h-151v270h-1418z" />
<glyph unicode="&#x44a;" horiz-adv-x="1208" d="M27 913v127h450v-411h260q40 0 71 -1.5t77 -8.5t80.5 -19.5t72 -36.5t61.5 -56.5t40 -82.5t16 -113q0 -311 -354 -311h-504v913h-270zM477 127h252q240 0 240 197q0 37 -9.5 66.5t-26 48t-37.5 32t-45 19t-48.5 9.5t-47.5 3t-42 0h-17h-219v-375z" />
<glyph unicode="&#x44b;" horiz-adv-x="1462" d="M147 0v1040h181v-411h262q39 0 70 -1.5t76.5 -8.5t80 -19.5t72.5 -36.5t62.5 -56.5t40.5 -82.5t16 -113t-17.5 -115.5t-56 -98t-111 -71.5t-172.5 -26h-504zM328 127h252q241 0 241 197q0 29 -6 53.5t-15 42t-25.5 31t-30 22t-37.5 14.5t-38.5 9t-42 4.5t-40 1.5h-39.5 h-219v-375zM1135 0v1040h180v-1040h-180z" />
<glyph unicode="&#x44c;" horiz-adv-x="1052" d="M147 0v1040h181v-413h260q40 0 72.5 -1.5t78 -8.5t80 -19t71.5 -35t61 -54t39.5 -78.5t15.5 -106.5q0 -64 -15.5 -115.5t-39.5 -84.5t-58.5 -57.5t-65.5 -37t-69 -19.5t-61 -8.5t-48 -1.5h-502zM328 127h250q56 0 99.5 10t68.5 29t41 37.5t22.5 44.5t8 41t1.5 35 q0 32 -7 58.5t-19.5 44.5t-29.5 31.5t-36.5 20.5t-41 12.5t-42.5 6.5t-41.5 2t-37.5 0h-17h-219v-373z" />
<glyph unicode="&#x44d;" horiz-adv-x="1132" d="M76 360h172q35 -274 303 -274q59 0 107 17t79 43.5t54 63.5t35 72.5t19 75.5t8.5 66.5t0.5 52.5h-448v127h448q-3 92 -28.5 160.5t-57.5 103.5t-75.5 55.5t-73 25.5t-60.5 5q-135 0 -215 -67.5t-88 -171.5h-172q8 72 33 130.5t57 95.5t75 64.5t81 41.5t83 22.5t72 10 t56 1.5q45 0 86 -4.5t93.5 -19t96 -38.5t87 -67.5t73.5 -101.5t48.5 -145t18.5 -193q0 -99 -16.5 -180t-43.5 -137.5t-67 -99.5t-82 -68t-93 -41t-96 -21.5t-95 -5.5q-38 0 -68.5 2t-77.5 10.5t-83.5 24t-79 45.5t-73.5 71t-56.5 104.5t-36.5 143.5z" />
<glyph unicode="&#x44e;" horiz-adv-x="1597" d="M147 0v1040h181v-428h164q6 70 26.5 134.5t61 126.5t96.5 107.5t138.5 73t182.5 27.5q82 0 155.5 -19t139.5 -61.5t113.5 -106t75.5 -159t28 -213.5q0 -114 -26 -206.5t-64 -150t-93 -99.5t-101 -62t-100 -31t-77.5 -12.5t-46.5 -1.5q-112 0 -200.5 33.5t-142.5 85 t-91.5 124t-53.5 140.5t-21 143h-164v-485h-181zM682 522q0 -55 6 -106.5t26.5 -114.5t53.5 -108t93 -76t140 -31q63 0 114.5 20.5t84 50.5t56.5 74t35.5 82.5t18.5 85t8 71.5t1 52t-1 52t-8 71.5t-18.5 84.5t-35.5 81.5t-56.5 73t-84 49.5t-114.5 20q-22 0 -42.5 -2 t-54.5 -11.5t-62 -26t-59 -49t-52 -76.5t-35 -113t-14 -154z" />
<glyph unicode="&#x44f;" horiz-adv-x="1112" d="M76 0l286 412q-113 13 -189.5 91t-76.5 210q0 44 7.5 85t31 86.5t60.5 78.5t101.5 55t149.5 22h519v-1040h-181v410h-237l-273 -410h-198zM283 719q0 -33 10.5 -62t36 -57.5t77 -45.5t123.5 -17h254v376h-260q-22 0 -36 -0.5t-42 -4.5t-47 -10.5t-42.5 -21t-38.5 -34.5 t-25 -51.5t-10 -71.5z" />
<glyph unicode="&#x451;" horiz-adv-x="1171" d="M88 516q0 83 11.5 156.5t45.5 150.5t87 132t143.5 90.5t208.5 35.5q246 0 372.5 -140.5t126.5 -410.5v-51h-804q1 -56 11.5 -109.5t35.5 -105.5t61.5 -91t93 -63t125.5 -24q230 0 287 215h172q-11 -48 -28 -90.5t-52 -90.5t-82 -82t-122.5 -56.5t-168.5 -22.5 q-116 0 -208 32t-150 84.5t-96.5 125.5t-54 150.5t-15.5 164.5zM268 1245v189h181v-189h-181zM279 606h614q-21 191 -91 269.5t-202 78.5q-75 0 -133.5 -25t-92 -62t-55.5 -87t-30 -91t-10 -83zM748 1245v189h180v-189h-180z" />
<glyph unicode="&#x2000;" horiz-adv-x="878" />
<glyph unicode="&#x2001;" horiz-adv-x="1757" />
<glyph unicode="&#x2002;" horiz-adv-x="878" />
<glyph unicode="&#x2003;" horiz-adv-x="1757" />
<glyph unicode="&#x2004;" horiz-adv-x="585" />
<glyph unicode="&#x2005;" horiz-adv-x="439" />
<glyph unicode="&#x2006;" horiz-adv-x="292" />
<glyph unicode="&#x2007;" horiz-adv-x="292" />
<glyph unicode="&#x2008;" horiz-adv-x="219" />
<glyph unicode="&#x2009;" horiz-adv-x="351" />
<glyph unicode="&#x200a;" horiz-adv-x="97" />
<glyph unicode="&#x2010;" horiz-adv-x="864" d="M162 461v174h540v-174h-540z" />
<glyph unicode="&#x2011;" horiz-adv-x="864" d="M162 461v174h540v-174h-540z" />
<glyph unicode="&#x2012;" horiz-adv-x="864" d="M162 461v174h540v-174h-540z" />
<glyph unicode="&#x2013;" horiz-adv-x="1228" d="M102 481v127h1024v-127h-1024z" />
<glyph unicode="&#x2014;" horiz-adv-x="2015" d="M102 481v127h1811v-127h-1811z" />
<glyph unicode="&#x2018;" horiz-adv-x="636" d="M217 946v287q0 48 13.5 87t34.5 64t49.5 44.5t53.5 29t52 15.5v-113q-43 -4 -73 -42t-30 -85v-64h103v-223h-203z" />
<glyph unicode="&#x2019;" horiz-adv-x="636" d="M217 907v113q42 4 72 41.5t30 85.5v63h-102v224h203v-287q0 -48 -13.5 -87t-34.5 -64t-49.5 -44.5t-53.5 -29t-52 -15.5z" />
<glyph unicode="&#x201a;" horiz-adv-x="636" d="M217 0v223h203v-286q0 -48 -13.5 -87t-34.5 -64t-49.5 -44.5t-53.5 -29t-52 -15.5v113q42 4 72 41.5t30 85.5v63h-102z" />
<glyph unicode="&#x201c;" horiz-adv-x="864" d="M162 946v289q0 99 59 161.5t144 78.5v-111q-44 -13 -73.5 -47t-29.5 -82v-66h103v-223h-203zM500 946v289q0 98 58.5 161t143.5 79v-111q-44 -13 -73 -46.5t-29 -82.5v-66h102v-223h-202z" />
<glyph unicode="&#x201d;" horiz-adv-x="864" d="M162 905v111q44 13 73 46.5t29 82.5v65h-102v224h203v-289q0 -98 -59 -161t-144 -79zM500 905v111q44 13 73 46.5t29 82.5v65h-102v224h202v-289q0 -99 -58.5 -161.5t-143.5 -78.5z" />
<glyph unicode="&#x201e;" horiz-adv-x="864" d="M162 0v223h203v-286q0 -96 -50 -154t-153 -86v113q44 8 73 43t29 84v63h-102zM500 0v223h202v-286q0 -187 -202 -240v113q44 8 73 43t29 84v63h-102z" />
<glyph unicode="&#x2026;" horiz-adv-x="1906" d="M217 0v223h203v-223h-203zM852 0v223h203v-223h-203zM1487 0v223h203v-223h-203z" />
<glyph unicode="&#x202f;" horiz-adv-x="351" />
<glyph unicode="&#x2039;" horiz-adv-x="585" d="M127 473v168l305 268v-168l-217 -184l217 -184v-168z" />
<glyph unicode="&#x203a;" horiz-adv-x="585" d="M154 205v168l217 184l-217 184v168l305 -268v-168z" />
<glyph unicode="&#x205f;" horiz-adv-x="439" />
<glyph unicode="&#x20ac;" d="M51 500l51 147h93q-2 18 -2 78q0 52 2 72h-144l51 147h107q18 117 58 211.5t104.5 168t161 113.5t219.5 40q112 0 203.5 -29.5t140.5 -69.5v-190q-51 51 -133.5 84t-190.5 33q-165 0 -260.5 -98.5t-120.5 -262.5h619l-52 -147h-587q0 -9 -1 -34t-1 -38q0 -16 1 -43t1 -35 h534l-51 -147h-461q25 -177 122.5 -273t258.5 -96q196 0 322 117v-195q-43 -37 -133.5 -65.5t-210.5 -28.5q-225 0 -364.5 134.5t-178.5 406.5h-158z" />
<glyph unicode="&#x2122;" horiz-adv-x="1763" d="M41 1321v113h616v-113h-231v-604h-154v604h-231zM817 717v717h205l192 -494l19 -72h8l16 72l193 494h205v-717h-154v457l8 92h-10l-211 -549h-106l-209 549h-10l8 -92v-457h-154z" />
<glyph unicode="&#x25fc;" horiz-adv-x="1044" d="M0 0v1044h1044v-1044h-1044z" />
</font>
</defs>
</svg>
